<?xml version="1.0" encoding="UTF-8"?><svg xmlns="http://www.w3.org/2000/svg" width="5.75in" height="2in" viewBox="0 0 414 144"><g id="a"><rect x="4.752" y="34.911" width="403.2" height="46.668" fill="none" stroke="#ccc" stroke-linecap="round" stroke-linejoin="round" stroke-width="1.645"/><polygon points="8.657 38.911 404.174 38.911 403.911 77.182 8.394 77.182 8.657 38.911" fill="#ccc" fill-rule="evenodd"/><rect x="110.057" y="62.387" width="16.551" height="7.966" fill="#292929"/><rect x="127.679" y="62.387" width="16.551" height="7.966" fill="#ee7623"/><rect x="4.752" y="93.118" width="403.2" height="46.668" fill="none" stroke="#ccc" stroke-linecap="round" stroke-linejoin="round" stroke-width="1.645"/><polygon points="8.657 97.118 404.174 97.118 403.911 135.389 8.394 135.389 8.657 97.118" fill="#ccc" fill-rule="evenodd"/><rect x="110.057" y="120.594" width="16.551" height="7.966" fill="#292929"/><rect x="127.679" y="120.594" width="16.551" height="7.966" fill="#ee7623"/></g><g id="b"><path d="M124.963,5.295v-1.268h5.616v1.268h-2.055v5.587h-1.507v-5.587h-2.055Z" fill="#ee7623"/><path d="M130.184,7.325c.122-.323.295-.599.519-.826.224-.227.493-.402.807-.527s.665-.188,1.056-.188.744.062,1.062.188c.316.125.587.301.811.527.225.228.396.503.519.826.121.323.183.683.183,1.08s-.062.755-.183,1.075c-.122.32-.294.594-.519.82-.224.228-.494.402-.811.523-.317.121-.671.183-1.062.183s-.742-.062-1.056-.183-.583-.296-.807-.523c-.224-.227-.396-.5-.519-.82-.121-.32-.182-.679-.182-1.075s.061-.757.182-1.08ZM131.423,8.985c.039.189.104.359.197.51s.216.27.369.359c.154.09.346.135.576.135s.424-.045.581-.135.281-.209.374-.359.159-.32.197-.51c.038-.188.058-.382.058-.58s-.02-.394-.058-.586-.104-.361-.197-.509-.217-.267-.374-.36c-.157-.092-.351-.139-.581-.139s-.422.047-.576.139c-.153.094-.276.213-.369.36s-.158.316-.197.509c-.038.192-.058.388-.058.586s.02.392.058.58Z" fill="#ee7623"/><path d="M140.054,4.027v2.582h.028c.173-.287.394-.497.663-.628.269-.132.53-.197.787-.197.364,0,.663.05.897.148.233.1.417.237.552.413s.229.391.283.644.082.532.082.84v3.053h-1.363v-2.803c0-.41-.064-.716-.192-.917-.128-.202-.355-.303-.682-.303-.371,0-.64.11-.807.331-.166.221-.249.584-.249,1.09v2.602h-1.363v-6.854h1.363Z" fill="#ee7623"/><path d="M144.412,7.325c.122-.323.295-.599.519-.826.224-.227.493-.402.807-.527s.665-.188,1.056-.188.744.062,1.062.188c.316.125.587.301.811.527.225.228.396.503.519.826.121.323.183.683.183,1.08s-.062.755-.183,1.075c-.122.32-.294.594-.519.82-.224.228-.494.402-.811.523-.317.121-.671.183-1.062.183s-.742-.062-1.056-.183-.583-.296-.807-.523c-.224-.227-.396-.5-.519-.82-.121-.32-.182-.679-.182-1.075s.061-.757.182-1.08ZM145.65,8.985c.039.189.104.359.197.51s.216.27.369.359c.154.09.346.135.576.135s.424-.045.581-.135.281-.209.374-.359.159-.32.197-.51c.038-.188.058-.382.058-.58s-.02-.394-.058-.586-.104-.361-.197-.509-.217-.267-.374-.36c-.157-.092-.351-.139-.581-.139s-.422.047-.576.139c-.153.094-.276.213-.369.36s-.158.316-.197.509c-.038.192-.058.388-.058.586s.02.392.058.58Z" fill="#ee7623"/><path d="M151.396,9.648c.061.105.139.191.234.259.097.067.207.117.332.149.124.031.254.048.389.048.096,0,.196-.012.302-.034s.202-.058.288-.105c.087-.048.158-.111.216-.191s.087-.181.087-.303c0-.205-.136-.358-.408-.461-.271-.103-.651-.205-1.138-.308-.198-.044-.392-.097-.581-.158-.188-.061-.356-.141-.504-.239-.146-.1-.266-.225-.354-.375-.09-.15-.135-.334-.135-.552,0-.32.062-.582.188-.787s.289-.366.494-.485c.205-.118.436-.201.691-.249s.519-.072.787-.072.529.025.782.077c.253.051.479.138.677.259.198.122.363.283.494.485.132.201.21.456.235.763h-1.296c-.02-.263-.118-.439-.298-.533-.179-.092-.39-.139-.633-.139-.077,0-.16.005-.25.015s-.171.03-.245.062c-.073.031-.136.078-.187.139-.052.061-.077.143-.077.245,0,.121.045.221.135.298.089.076.206.139.35.187.145.048.31.092.495.13s.374.08.566.125c.198.045.392.099.58.163.189.063.357.148.504.254.147.106.266.237.355.394.09.157.135.351.135.581,0,.326-.065.601-.197.821-.131.221-.302.398-.514.532-.211.135-.452.229-.725.283-.271.055-.549.082-.83.082-.288,0-.57-.029-.845-.087-.275-.058-.521-.153-.734-.288-.215-.134-.391-.312-.528-.532s-.213-.498-.226-.831h1.296c0,.147.03.274.092.38Z" fill="#ee7623"/><path d="M158.131,5.919v.912h-.999v2.457c0,.23.039.384.115.461.077.077.23.115.461.115.077,0,.15-.003.221-.01.07-.006.138-.016.202-.028v1.056c-.115.02-.243.032-.385.038-.141.007-.278.01-.412.01-.212,0-.411-.015-.601-.043-.188-.029-.354-.085-.499-.168-.144-.083-.258-.202-.341-.355s-.125-.355-.125-.604v-2.928h-.825v-.912h.825v-1.488h1.363v1.488h.999Z" fill="#ee7623"/><path d="M162.748,5.919v.69h.028c.173-.287.397-.497.673-.628.274-.132.557-.197.845-.197.364,0,.663.05.897.148.233.1.417.237.552.413s.229.391.283.644.082.532.082.84v3.053h-1.363v-2.803c0-.41-.064-.716-.192-.917-.128-.202-.355-.303-.682-.303-.371,0-.64.11-.807.331-.166.221-.249.584-.249,1.09v2.602h-1.363v-4.963h1.296Z" fill="#ee7623"/><path d="M168.603,9.691c.205.198.499.298.883.298.275,0,.513-.069.711-.207.198-.137.32-.283.364-.437h1.2c-.191.596-.486,1.021-.883,1.277-.397.256-.877.384-1.44.384-.391,0-.742-.062-1.056-.188s-.579-.303-.797-.532c-.218-.23-.386-.506-.504-.826s-.178-.672-.178-1.056c0-.371.061-.717.183-1.037.121-.32.294-.597.519-.83.224-.233.491-.418.802-.553.31-.134.654-.201,1.031-.201.423,0,.791.082,1.104.245s.571.382.772.657c.202.275.348.589.437.94.09.353.122.721.097,1.104h-3.581c.02.441.131.762.336.96ZM170.144,7.08c-.163-.179-.411-.269-.744-.269-.218,0-.398.037-.542.11-.145.073-.26.165-.346.273-.087.109-.147.225-.183.346-.035.122-.057.23-.062.326h2.218c-.064-.346-.178-.607-.341-.787Z" fill="#ee7623"/><path d="M175.382,5.919v.912h-.999v2.457c0,.23.039.384.115.461.077.077.23.115.461.115.077,0,.15-.003.221-.01.07-.006.138-.016.202-.028v1.056c-.115.02-.243.032-.385.038-.141.007-.278.01-.412.01-.212,0-.411-.015-.601-.043-.188-.029-.354-.085-.499-.168-.144-.083-.258-.202-.341-.355s-.125-.355-.125-.604v-2.928h-.825v-.912h.825v-1.488h1.363v1.488h.999Z" fill="#ee7623"/><path d="M180.305,10.881l-.883-3.331h-.02l-.845,3.331h-1.411l-1.574-4.963h1.44l.911,3.369h.02l.826-3.369h1.324l.845,3.359h.02l.912-3.359h1.401l-1.564,4.963h-1.402Z" fill="#ee7623"/><path d="M183.877,7.325c.122-.323.295-.599.519-.826.224-.227.493-.402.807-.527s.665-.188,1.056-.188.744.062,1.062.188c.316.125.587.301.811.527.225.228.396.503.519.826.121.323.183.683.183,1.08s-.062.755-.183,1.075c-.122.32-.294.594-.519.82-.224.228-.494.402-.811.523-.317.121-.671.183-1.062.183s-.742-.062-1.056-.183-.583-.296-.807-.523c-.224-.227-.396-.5-.519-.82-.121-.32-.182-.679-.182-1.075s.061-.757.182-1.08ZM185.115,8.985c.039.189.104.359.197.51s.216.27.369.359c.154.09.346.135.576.135s.424-.045.581-.135.281-.209.374-.359.159-.32.197-.51c.038-.188.058-.382.058-.58s-.02-.394-.058-.586-.104-.361-.197-.509-.217-.267-.374-.36c-.157-.092-.351-.139-.581-.139s-.422.047-.576.139c-.153.094-.276.213-.369.36s-.158.316-.197.509c-.038.192-.058.388-.058.586s.02.392.058.58Z" fill="#ee7623"/><path d="M191.01,5.919v.921h.02c.063-.153.15-.296.259-.427s.233-.243.374-.336.292-.165.451-.216c.16-.052.327-.077.5-.077.089,0,.188.016.297.048v1.268c-.063-.013-.141-.024-.23-.034-.089-.009-.176-.014-.259-.014-.25,0-.461.041-.634.124-.173.084-.312.197-.417.341-.106.145-.182.312-.226.505-.045.191-.067.399-.067.624v2.236h-1.363v-4.963h1.296Z" fill="#ee7623"/><path d="M194.936,4.027v3.677l1.718-1.785h1.613l-1.872,1.823,2.083,3.14h-1.651l-1.363-2.218-.527.509v1.709h-1.363v-6.854h1.363Z" fill="#ee7623"/><path d="M126.504,19.331c.061.105.139.191.234.259.097.067.207.117.332.149.124.031.254.048.389.048.096,0,.196-.012.302-.034s.202-.058.288-.105c.087-.048.158-.111.216-.191s.087-.181.087-.303c0-.205-.136-.358-.408-.461-.271-.103-.651-.205-1.138-.308-.198-.044-.392-.097-.581-.158-.188-.061-.356-.141-.504-.239-.146-.1-.266-.225-.354-.375-.09-.15-.135-.334-.135-.552,0-.32.062-.582.188-.787s.289-.366.494-.485c.205-.118.436-.201.691-.249s.519-.072.787-.072.529.025.782.077c.253.051.479.138.677.259.198.122.363.283.494.485.132.201.21.456.235.763h-1.296c-.02-.263-.118-.439-.298-.533-.179-.092-.39-.139-.633-.139-.077,0-.16.005-.25.015s-.171.03-.245.062c-.073.031-.136.078-.187.139-.052.061-.077.143-.077.245,0,.121.045.221.135.298.089.076.206.139.35.187.145.048.31.092.495.13s.374.08.566.125c.198.045.392.099.58.163.189.063.357.148.504.254.147.106.266.237.355.394.09.157.135.351.135.581,0,.326-.065.601-.197.821-.131.221-.302.398-.514.532-.211.135-.452.229-.725.283-.271.055-.549.082-.83.082-.288,0-.57-.029-.845-.087-.275-.058-.521-.153-.734-.288-.215-.134-.391-.312-.528-.532s-.213-.498-.226-.831h1.296c0,.147.03.274.092.38Z" fill="#ee7623"/><path d="M134.783,20.564l-.883-3.331h-.02l-.845,3.331h-1.411l-1.574-4.963h1.44l.911,3.369h.02l.826-3.369h1.324l.845,3.359h.02l.912-3.359h1.401l-1.564,4.963h-1.402Z" fill="#ee7623"/><path d="M138.364,14.833v-1.123h1.363v1.123h-1.363ZM139.727,15.601v4.963h-1.363v-4.963h1.363Z" fill="#ee7623"/><path d="M143.529,15.601v.912h-.999v2.457c0,.23.039.384.115.461.077.077.23.115.461.115.077,0,.15-.003.221-.01.07-.006.138-.016.202-.028v1.056c-.115.02-.243.032-.385.038-.141.007-.278.01-.412.01-.212,0-.411-.015-.601-.043-.188-.029-.354-.085-.499-.168-.144-.083-.258-.202-.341-.355s-.125-.355-.125-.604v-2.928h-.825v-.912h.825v-1.488h1.363v1.488h.999Z" fill="#ee7623"/><path d="M146.553,16.494c-.218,0-.4.05-.547.148-.147.1-.268.228-.36.384-.093.157-.158.33-.197.519-.038.189-.058.376-.058.562,0,.18.02.362.058.548.039.186.102.354.188.504.087.15.203.273.351.369.147.097.326.145.537.145.327,0,.578-.092.754-.273.176-.183.286-.428.331-.734h1.315c-.09.659-.346,1.161-.768,1.507-.423.346-.964.519-1.623.519-.371,0-.712-.062-1.022-.188s-.574-.299-.792-.523c-.218-.224-.387-.491-.509-.801-.121-.311-.182-.651-.182-1.022,0-.385.056-.741.168-1.071.111-.329.276-.614.494-.854.218-.24.483-.428.797-.562.313-.134.672-.201,1.075-.201.294,0,.577.038.85.115.271.077.515.193.729.351.214.156.389.352.523.585.134.234.211.511.23.831h-1.335c-.09-.569-.426-.854-1.008-.854Z" fill="#ee7623"/><path d="M151.055,13.71v2.582h.028c.173-.287.394-.497.663-.628.269-.132.53-.197.787-.197.364,0,.663.05.897.148.233.1.417.237.552.413s.229.391.283.644.082.532.082.84v3.053h-1.363v-2.803c0-.41-.064-.716-.192-.917-.128-.202-.355-.303-.682-.303-.371,0-.64.11-.807.331-.166.221-.249.584-.249,1.09v2.602h-1.363v-6.854h1.363Z" fill="#ee7623"/><path d="M161.615,13.71l2.563,6.854h-1.565l-.519-1.526h-2.562l-.538,1.526h-1.517l2.592-6.854h1.546ZM161.701,17.915l-.863-2.516h-.02l-.893,2.516h1.775Z" fill="#ee7623"/><polyline points="152.989 26.285 152.989 124.932 144.306 124.932" fill="none" stroke="#fff" stroke-linejoin="round" stroke-width="3"/><polyline points="152.989 26.285 152.989 124.932 144.306 124.932" fill="none" stroke="#ee7623" stroke-linejoin="round" stroke-width="1.5"/><line x1="152.186" y1="66.242" x2="144.306" y2="66.242" fill="none" stroke="#fff" stroke-linejoin="round" stroke-width="3"/><line x1="152.186" y1="66.242" x2="144.306" y2="66.242" fill="none" stroke="#ee7623" stroke-linejoin="round" stroke-width="1.5"/><path d="M154.989,25.985c0-1.1-.9-1.9-1.9-1.9s-1.9.9-1.9,1.9c0,1,.9,1.9,1.9,1.9s1.9-.9,1.9-1.9Z" fill="#ee7623"/></g></svg>