<?xml version="1.0" encoding="UTF-8"?><svg xmlns="http://www.w3.org/2000/svg" width="5.75in" height="2in" viewBox="0 0 414 144"><g id="a"><rect x="4.752" y="35.3789" width="403.2" height="46.668" fill="none" stroke="#ccc" stroke-linecap="round" stroke-linejoin="round" stroke-width="1.6451"/><polygon points="8.6572 39.3789 404.174 39.3789 403.9108 77.6502 8.394 77.6502 8.6572 39.3789" fill="#ccc" fill-rule="evenodd"/><rect x="270.8024" y="62.8553" width="16.5512" height="7.9656" fill="#5faf46"/><rect x="289.4244" y="62.8553" width="16.5512" height="7.9656" fill="#1a1a1a"/><rect x="4.752" y="93.5857" width="403.2" height="46.668" fill="none" stroke="#ccc" stroke-linecap="round" stroke-linejoin="round" stroke-width="1.6451"/><polygon points="8.6572 97.5858 404.174 97.5858 403.9108 135.8571 8.394 135.8571 8.6572 97.5858" fill="#ccc" fill-rule="evenodd"/><rect x="270.8024" y="121.0621" width="16.5512" height="7.9656" fill="#5faf46"/><rect x="289.4244" y="121.0621" width="16.5512" height="7.9656" fill="#1a1a1a"/></g><g id="b"><path d="M225.783,5.7624v-1.2676h5.6162v1.2676h-2.0547v5.5869h-1.5068v-5.5869h-2.0547Z" fill="#5faf46"/><path d="M231.0047,7.7927c.1221-.3232.2949-.5986.5186-.8262.2236-.2266.4932-.4023.8066-.5273s.665-.1875,1.0557-.1875.7441.0625,1.0615.1875c.3164.125.5869.3008.8105.5273.2246.2275.3965.5029.5186.8262.1211.3232.1826.6826.1826,1.0801,0,.3965-.0615.7549-.1826,1.0752-.1221.3203-.2939.5938-.5186.8203-.2236.2275-.4941.4023-.8105.5234-.3174.1211-.6709.1826-1.0615.1826s-.7422-.0615-1.0557-.1826-.583-.2959-.8066-.5234c-.2236-.2266-.3965-.5-.5186-.8203-.1211-.3203-.1816-.6787-.1816-1.0752,0-.3975.0605-.7568.1816-1.0801ZM232.243,9.4528c.0391.1895.1045.3594.1973.5098s.2158.2695.3691.3594c.1543.0898.3457.1348.5762.1348s.4238-.0449.5811-.1348.2812-.209.374-.3594.1592-.3203.1973-.5098c.0381-.1885.0576-.3818.0576-.5801s-.0195-.3936-.0576-.5859-.1045-.3613-.1973-.5088-.2168-.2666-.374-.3604c-.1572-.0918-.3506-.1387-.5811-.1387s-.4219.0469-.5762.1387c-.1533.0938-.2764.2129-.3691.3604s-.1582.3164-.1973.5088c-.0381.1924-.0576.3877-.0576.5859s.0195.3916.0576.5801Z" fill="#5faf46"/><path d="M241.8816,7.279c-.2178,0-.4004.0498-.5469.1484-.1475.0996-.2676.2275-.3604.3838-.0928.1572-.1582.3301-.1973.5186-.0381.1895-.0576.376-.0576.5615,0,.1797.0195.3623.0576.5479.0391.1855.1016.3535.1875.5039.0869.1504.2031.2734.3506.3691.1475.0967.3262.1445.5371.1445.3271,0,.5781-.0918.7539-.2734.1758-.1826.2861-.4277.3311-.7344h1.3154c-.0898.6592-.3457,1.1611-.7676,1.5068-.4229.3457-.9639.5186-1.623.5186-.3711,0-.7119-.0625-1.0225-.1875s-.5742-.2988-.792-.5234c-.2178-.2236-.3867-.4912-.5088-.8008-.1211-.3105-.1816-.6514-.1816-1.0225,0-.3848.0557-.7412.168-1.0713.1113-.3291.2764-.6143.4941-.8535.2178-.2402.4834-.4277.7969-.5625.3135-.1338.6719-.2012,1.0752-.2012.2939,0,.5771.0381.8496.1152.2715.0771.5146.1934.7295.3506.2139.1562.3887.3516.5234.585.1338.2344.2109.5107.2305.8311h-1.335c-.0898-.5693-.4258-.8545-1.0078-.8545Z" fill="#5faf46"/><path d="M246.4227,4.4948v6.8545h-1.3633v-6.8545h1.3633Z" fill="#5faf46"/><path d="M250.8572,11.3493v-.6914h-.0283c-.1729.2881-.3965.4961-.6719.624s-.5566.1924-.8447.1924c-.3652,0-.6641-.0479-.8975-.1445-.2344-.0957-.418-.2314-.5527-.4072-.1338-.1768-.2285-.3906-.2832-.6436-.0537-.2529-.0811-.5332-.0811-.8398v-3.0527h1.3633v2.8027c0,.4102.0635.7158.1914.917s.3555.3027.6816.3027c.3711,0,.6406-.1104.8066-.332.166-.2207.25-.583.25-1.0889v-2.6016h1.3633v4.9629h-1.2969Z" fill="#5faf46"/><path d="M254.3377,10.1159c.0605.1055.1387.1914.2344.2588.0967.0674.207.1172.332.1494.124.0312.2539.0479.3887.0479.0957,0,.1963-.0117.3018-.0342s.2021-.0576.2881-.1055c.0869-.0479.1582-.1113.2158-.1914s.0869-.1807.0869-.3027c0-.2051-.1357-.3584-.4082-.4609-.2715-.1025-.6514-.2051-1.1377-.3076-.1982-.0439-.3916-.0967-.5811-.1582-.1885-.0605-.3564-.1406-.5039-.2393-.1465-.0996-.2656-.2246-.3545-.375-.0898-.1504-.1348-.334-.1348-.5518,0-.3203.0625-.582.1875-.7871s.2891-.3662.4941-.4854c.2051-.1182.4355-.2012.6914-.249s.5186-.0723.7871-.0723.5293.0254.7822.0771c.2529.0508.4785.1377.6768.2588.1982.1221.3633.2832.4941.4854.1318.2012.21.4561.2354.7627h-1.2959c-.0195-.2627-.1182-.4395-.2979-.5332-.1787-.0918-.3896-.1387-.6328-.1387-.0771,0-.1602.0049-.25.0146s-.1709.0303-.2451.0625c-.0732.0312-.1357.0781-.1865.1387-.0518.0605-.0771.1426-.0771.2451,0,.1211.0449.2207.1348.2979.0889.0762.2061.1387.3496.1865.1445.0479.3096.0918.4951.1299s.374.0801.5664.125c.1982.0449.3916.0986.5801.1631.1895.0635.3574.1484.5039.2539.1475.1064.2656.2373.3555.3936.0898.1572.1348.3506.1348.5811,0,.3262-.0654.6006-.1973.8213-.1309.2207-.3018.3984-.5137.5322-.2109.1348-.4521.2295-.7246.2832-.2715.0547-.5488.082-.8301.082-.2881,0-.5703-.0293-.8447-.0869-.2754-.0576-.5205-.1533-.7344-.2881-.2148-.1338-.3906-.3115-.5283-.5322s-.2129-.498-.2256-.8311h1.2959c0,.1475.0303.2744.0918.3799Z" fill="#5faf46"/><path d="M261.0721,6.3864v.9121h-.999v2.457c0,.2305.0391.3838.1152.4609.0771.0771.2305.1152.4609.1152.0771,0,.1504-.0029.2207-.0098.0703-.0059.1377-.0156.2021-.0283v1.0557c-.1152.0195-.2432.0322-.3848.0381-.1406.0068-.2783.0098-.4121.0098-.2119,0-.4111-.0146-.6006-.043-.1885-.0293-.3545-.085-.499-.168-.1436-.083-.2578-.2021-.3408-.3555s-.125-.3555-.125-.6045v-2.9277h-.8252v-.9121h.8252v-1.4883h1.3633v1.4883h.999Z" fill="#5faf46"/><path d="M263.1834,10.1589c.2051.1982.499.2979.8828.2979.2754,0,.5127-.0693.7109-.207.1982-.1367.3203-.2832.3643-.4365h1.2002c-.1914.5957-.4863,1.0215-.8828,1.2773-.3975.2559-.877.3838-1.4404.3838-.3906,0-.7422-.0625-1.0557-.1875s-.5791-.3027-.7969-.5322c-.2178-.2305-.3857-.5059-.5039-.8262s-.1777-.6719-.1777-1.0557c0-.3711.0605-.7168.1826-1.0371.1211-.3203.2939-.5967.5186-.8301.2236-.2334.4912-.418.8018-.5527.3096-.1338.6543-.2012,1.0312-.2012.4229,0,.791.082,1.1045.2451s.5713.3818.7725.6572c.2021.2754.3477.5889.4365.9404.0898.3525.1221.7207.0967,1.1045h-3.5811c.0195.4414.1309.7617.3359.96ZM264.7244,7.5475c-.1631-.1787-.4111-.2686-.7441-.2686-.2178,0-.3984.0371-.542.1104-.1445.0732-.2598.165-.3457.2734-.0869.1094-.1475.2246-.1826.3457-.0352.1221-.0566.2305-.0625.3262h2.2178c-.0645-.3457-.1777-.6074-.3408-.7871Z" fill="#5faf46"/><path d="M268.531,6.3864v.9209h.0195c.0635-.1533.1504-.2959.2588-.4268s.2334-.2432.374-.3359.292-.165.4512-.2158c.1602-.0518.3271-.0771.5-.0771.0889,0,.1885.0156.2969.0479v1.2676c-.0635-.0127-.1406-.0244-.2305-.0342-.0889-.0088-.1758-.0137-.2588-.0137-.25,0-.4609.041-.6338.124-.1729.084-.3115.1973-.417.3408-.1064.1445-.1816.3125-.2256.5049-.0449.1914-.0674.3994-.0674.624v2.2363h-1.3633v-4.9629h1.2959Z" fill="#5faf46"/><path d="M274.9344,6.3864v.6904h.0283c.1729-.2871.3975-.4971.6729-.6279.2744-.1318.5566-.1973.8447-.1973.3643,0,.6631.0498.8975.1484.2334.0996.417.2373.5518.4131s.2285.3906.2832.6436.082.5322.082.8398v3.0527h-1.3633v-2.8027c0-.4102-.0645-.7158-.1924-.917-.1279-.2021-.3555-.3027-.6816-.3027-.3711,0-.6396.1104-.8066.3311-.166.2207-.249.584-.249,1.0898v2.6016h-1.3633v-4.9629h1.2959Z" fill="#5faf46"/><path d="M280.7898,10.1589c.2051.1982.499.2979.8828.2979.2754,0,.5127-.0693.7109-.207.1982-.1367.3203-.2832.3643-.4365h1.2002c-.1914.5957-.4863,1.0215-.8828,1.2773-.3975.2559-.877.3838-1.4404.3838-.3906,0-.7422-.0625-1.0557-.1875s-.5791-.3027-.7969-.5322c-.2178-.2305-.3857-.5059-.5039-.8262s-.1777-.6719-.1777-1.0557c0-.3711.0605-.7168.1826-1.0371.1211-.3203.2939-.5967.5186-.8301.2236-.2334.4912-.418.8018-.5527.3096-.1338.6543-.2012,1.0312-.2012.4229,0,.791.082,1.1045.2451s.5713.3818.7725.6572c.2021.2754.3477.5889.4365.9404.0898.3525.1221.7207.0967,1.1045h-3.5811c.0195.4414.1309.7617.3359.96ZM282.3309,7.5475c-.1631-.1787-.4111-.2686-.7441-.2686-.2178,0-.3984.0371-.542.1104-.1445.0732-.2598.165-.3457.2734-.0869.1094-.1475.2246-.1826.3457-.0352.1221-.0566.2305-.0625.3262h2.2178c-.0645-.3457-.1777-.6074-.3408-.7871Z" fill="#5faf46"/><path d="M287.5682,6.3864v.9121h-.999v2.457c0,.2305.0391.3838.1152.4609.0771.0771.2305.1152.4609.1152.0771,0,.1504-.0029.2207-.0098.0703-.0059.1377-.0156.2021-.0283v1.0557c-.1152.0195-.2432.0322-.3848.0381-.1406.0068-.2783.0098-.4121.0098-.2119,0-.4111-.0146-.6006-.043-.1885-.0293-.3545-.085-.499-.168-.1436-.083-.2578-.2021-.3408-.3555s-.125-.3555-.125-.6045v-2.9277h-.8252v-.9121h.8252v-1.4883h1.3633v1.4883h.999Z" fill="#5faf46"/><path d="M292.492,11.3493l-.8828-3.3311h-.0195l-.8447,3.3311h-1.4111l-1.5742-4.9629h1.4404l.9111,3.3691h.0195l.8262-3.3691h1.3242l.8447,3.3594h.0195l.9121-3.3594h1.4014l-1.5645,4.9629h-1.4023Z" fill="#5faf46"/><path d="M296.0633,7.7927c.1221-.3232.2949-.5986.5186-.8262.2236-.2266.4932-.4023.8066-.5273s.665-.1875,1.0557-.1875.7441.0625,1.0615.1875c.3164.125.5869.3008.8105.5273.2246.2275.3965.5029.5186.8262.1211.3232.1826.6826.1826,1.0801,0,.3965-.0615.7549-.1826,1.0752-.1221.3203-.2939.5938-.5186.8203-.2236.2275-.4941.4023-.8105.5234-.3174.1211-.6709.1826-1.0615.1826s-.7422-.0615-1.0557-.1826-.583-.2959-.8066-.5234c-.2236-.2266-.3965-.5-.5186-.8203-.1211-.3203-.1816-.6787-.1816-1.0752,0-.3975.0605-.7568.1816-1.0801ZM297.3016,9.4528c.0391.1895.1045.3594.1973.5098s.2158.2695.3691.3594c.1543.0898.3457.1348.5762.1348s.4238-.0449.5811-.1348.2812-.209.374-.3594.1592-.3203.1973-.5098c.0381-.1885.0576-.3818.0576-.5801s-.0195-.3936-.0576-.5859-.1045-.3613-.1973-.5088-.2168-.2666-.374-.3604c-.1572-.0918-.3506-.1387-.5811-.1387s-.4219.0469-.5762.1387c-.1533.0938-.2764.2129-.3691.3604s-.1582.3164-.1973.5088c-.0381.1924-.0576.3877-.0576.5859s.0195.3916.0576.5801Z" fill="#5faf46"/><path d="M303.1961,6.3864v.9209h.0195c.0635-.1533.1504-.2959.2588-.4268s.2334-.2432.374-.3359.292-.165.4512-.2158c.1602-.0518.3271-.0771.5-.0771.0889,0,.1885.0156.2969.0479v1.2676c-.0635-.0127-.1406-.0244-.2305-.0342-.0889-.0088-.1758-.0137-.2588-.0137-.25,0-.4609.041-.6338.124-.1729.084-.3115.1973-.417.3408-.1064.1445-.1816.3125-.2256.5049-.0449.1914-.0674.3994-.0674.624v2.2363h-1.3633v-4.9629h1.2959Z" fill="#5faf46"/><path d="M307.1228,4.4948v3.6768l1.7178-1.7852h1.6133l-1.8721,1.8232,2.083,3.1396h-1.6514l-1.3633-2.2178-.5273.5088v1.709h-1.3633v-6.8545h1.3633Z" fill="#5faf46"/><path d="M227.324,19.7985c.0605.1055.1387.1914.2344.2588.0967.0674.207.1172.332.1494.124.0312.2539.0479.3887.0479.0957,0,.1963-.0117.3018-.0342s.2021-.0576.2881-.1055c.0869-.0479.1582-.1113.2158-.1914s.0869-.1807.0869-.3027c0-.2051-.1357-.3584-.4082-.4609-.2715-.1025-.6514-.2051-1.1377-.3076-.1982-.0439-.3916-.0967-.5811-.1582-.1885-.0605-.3564-.1406-.5039-.2393-.1465-.0996-.2656-.2246-.3545-.375-.0898-.1504-.1348-.334-.1348-.5518,0-.3203.0625-.582.1875-.7871s.2891-.3662.4941-.4854c.2051-.1182.4355-.2012.6914-.249s.5186-.0723.7871-.0723.5293.0254.7822.0771c.2529.0508.4785.1377.6768.2588.1982.1221.3633.2832.4941.4854.1318.2012.21.4561.2354.7627h-1.2959c-.0195-.2627-.1182-.4395-.2979-.5332-.1787-.0918-.3896-.1387-.6328-.1387-.0771,0-.1602.0049-.25.0146s-.1709.0303-.2451.0625c-.0732.0312-.1357.0781-.1865.1387-.0518.0605-.0771.1426-.0771.2451,0,.1211.0449.2207.1348.2979.0889.0762.2061.1387.3496.1865.1445.0479.3096.0918.4951.1299s.374.0801.5664.125c.1982.0449.3916.0986.5801.1631.1895.0635.3574.1484.5039.2539.1475.1064.2656.2373.3555.3936.0898.1572.1348.3506.1348.5811,0,.3262-.0654.6006-.1973.8213-.1309.2207-.3018.3984-.5137.5322-.2109.1348-.4521.2295-.7246.2832-.2715.0547-.5488.082-.8301.082-.2881,0-.5703-.0293-.8447-.0869-.2754-.0576-.5205-.1533-.7344-.2881-.2148-.1338-.3906-.3115-.5283-.5322s-.2129-.498-.2256-.8311h1.2959c0,.1475.0303.2744.0918.3799Z" fill="#5faf46"/><path d="M235.6033,21.0319l-.8828-3.3311h-.0195l-.8447,3.3311h-1.4111l-1.5742-4.9629h1.4404l.9111,3.3691h.0195l.8262-3.3691h1.3242l.8447,3.3594h.0195l.9121-3.3594h1.4014l-1.5645,4.9629h-1.4023Z" fill="#5faf46"/><path d="M239.1844,15.3005v-1.123h1.3633v1.123h-1.3633ZM240.5477,16.069v4.9629h-1.3633v-4.9629h1.3633Z" fill="#5faf46"/><path d="M244.3494,16.069v.9121h-.999v2.457c0,.2305.0391.3838.1152.4609.0771.0771.2305.1152.4609.1152.0771,0,.1504-.0029.2207-.0098.0703-.0059.1377-.0156.2021-.0283v1.0557c-.1152.0195-.2432.0322-.3848.0381-.1406.0068-.2783.0098-.4121.0098-.2119,0-.4111-.0146-.6006-.043-.1885-.0293-.3545-.085-.499-.168-.1436-.083-.2578-.2021-.3408-.3555s-.125-.3555-.125-.6045v-2.9277h-.8252v-.9121h.8252v-1.4883h1.3633v1.4883h.999Z" fill="#5faf46"/><path d="M247.3728,16.9616c-.2178,0-.4004.0498-.5469.1484-.1475.0996-.2676.2275-.3604.3838-.0928.1572-.1582.3301-.1973.5186-.0381.1895-.0576.376-.0576.5615,0,.1797.0195.3623.0576.5479.0391.1855.1016.3535.1875.5039.0869.1504.2031.2734.3506.3691.1475.0967.3262.1445.5371.1445.3271,0,.5781-.0918.7539-.2734.1758-.1826.2861-.4277.3311-.7344h1.3154c-.0898.6592-.3457,1.1611-.7676,1.5068-.4229.3457-.9639.5186-1.623.5186-.3711,0-.7119-.0625-1.0225-.1875s-.5742-.2988-.792-.5234c-.2178-.2236-.3867-.4912-.5088-.8008-.1211-.3105-.1816-.6514-.1816-1.0225,0-.3848.0557-.7412.168-1.0713.1113-.3291.2764-.6143.4941-.8535.2178-.2402.4834-.4277.7969-.5625.3135-.1338.6719-.2012,1.0752-.2012.2939,0,.5771.0381.8496.1152.2715.0771.5146.1934.7295.3506.2139.1562.3887.3516.5234.585.1338.2344.2109.5107.2305.8311h-1.335c-.0898-.5693-.4258-.8545-1.0078-.8545Z" fill="#5faf46"/><path d="M251.8758,14.1774v2.582h.0283c.1729-.2871.3936-.4971.6631-.6279.2686-.1318.5303-.1973.7871-.1973.3643,0,.6631.0498.8975.1484.2334.0996.417.2373.5518.4131s.2285.3906.2832.6436.082.5322.082.8398v3.0527h-1.3633v-2.8027c0-.4102-.0645-.7158-.1924-.917-.1279-.2021-.3555-.3027-.6816-.3027-.3711,0-.6396.1104-.8066.3311-.166.2207-.249.584-.249,1.0898v2.6016h-1.3633v-6.8545h1.3633Z" fill="#5faf46"/><path d="M262.243,14.1774c.3271,0,.624.0293.8936.0869.2686.0576.499.1514.6904.2832.1924.1309.3408.3057.4463.5225.1064.2178.1592.4863.1592.8066,0,.3457-.0791.6338-.2354.8643-.1572.2305-.3887.4189-.6963.5664.4229.1211.7373.334.9453.6387.208.3037.3125.6699.3125,1.0986,0,.3457-.0674.6445-.2021.8975-.1338.2529-.3145.46-.542.6191-.2275.1602-.4863.2783-.7773.3555-.292.0771-.5908.1152-.8975.1152h-3.3223v-6.8545h3.2256ZM262.0516,16.9518c.2686,0,.4893-.0635.6621-.1924.1729-.1279.2588-.3359.2588-.624,0-.1592-.0283-.291-.0859-.3936-.0576-.1016-.1348-.1816-.2305-.2393s-.2061-.0977-.3311-.1201-.2549-.0342-.3887-.0342h-1.4111v1.6035h1.5264ZM262.1375,19.861c.1475,0,.2881-.0146.4229-.0439.1338-.0283.2529-.0762.3545-.1436.1025-.0674.1846-.1582.2451-.2734s.0918-.2627.0918-.4414c0-.3525-.0996-.6035-.2979-.7539s-.4609-.2256-.7871-.2256h-1.6416v1.8818h1.6123Z" fill="#5faf46"/><polyline points="242.8983 26.7531 242.8983 125.3999 270.4528 125.3999" fill="none" stroke="#fff" stroke-linejoin="round" stroke-width="3"/><line x1="242.8983" y1="26.7531" x2="242.8983" y2="28.2531" fill="none" stroke="#5faf46" stroke-linecap="round" stroke-linejoin="round" stroke-width="1.5"/><line x1="242.8983" y1="31.3385" x2="242.8983" y2="122.3573" fill="none" stroke="#5faf46" stroke-dasharray="3.0854 3.0854" stroke-linecap="round" stroke-linejoin="round" stroke-width="1.5"/><polyline points="242.8983 123.8999 242.8983 125.3999 244.3983 125.3999" fill="none" stroke="#5faf46" stroke-linecap="round" stroke-linejoin="round" stroke-width="1.5"/><line x1="247.1266" y1="125.3999" x2="267.5887" y2="125.3999" fill="none" stroke="#5faf46" stroke-dasharray="2.7283 2.7283" stroke-linecap="round" stroke-linejoin="round" stroke-width="1.5"/><line x1="268.9528" y1="125.3999" x2="270.4528" y2="125.3999" fill="none" stroke="#5faf46" stroke-linecap="round" stroke-linejoin="round" stroke-width="1.5"/><line x1="244.3869" y1="66.71" x2="270.4457" y2="66.71" fill="none" stroke="#fff" stroke-linejoin="round" stroke-width="3"/><line x1="244.3869" y1="66.71" x2="245.8869" y2="66.71" fill="none" stroke="#5faf46" stroke-linecap="round" stroke-linejoin="round" stroke-width="1.5"/><line x1="249.181" y1="66.71" x2="267.2986" y2="66.71" fill="none" stroke="#5faf46" stroke-dasharray="3.2941 3.2941" stroke-linecap="round" stroke-linejoin="round" stroke-width="1.5"/><line x1="268.9457" y1="66.71" x2="270.4457" y2="66.71" fill="none" stroke="#5faf46" stroke-linecap="round" stroke-linejoin="round" stroke-width="1.5"/><path d="M241.0019,26.9876c0-1.1.9-1.9,1.9-1.9s1.9.9,1.9,1.9c0,1-.9,1.9-1.9,1.9s-1.9-.9-1.9-1.9Z" fill="#5faf46"/></g></svg>